<mxfile host="app.diagrams.net" modified="2024-01-14T13:32:03.586Z" agent="Mozilla/5.0 (Windows NT 10.0; Win64; x64) AppleWebKit/537.36 (KHTML, like Gecko) Chrome/120.0.0.0 Safari/537.36" etag="BGJuDJ9h2jYslbyaYv2k" version="22.1.18" type="device">
  <diagram name="Page-1" id="_XcLQtfCkwFp09y3gAzK">
    <mxGraphModel dx="1728" dy="915" grid="1" gridSize="10" guides="1" tooltips="1" connect="1" arrows="1" fold="1" page="1" pageScale="1" pageWidth="1400" pageHeight="800" math="0" shadow="0">
      <root>
        <mxCell id="0" />
        <mxCell id="1" parent="0" />
        <mxCell id="lXj2V7DBIi6SYM75jx1j-2" value="" style="rounded=0;whiteSpace=wrap;html=1;fillColor=#FFF6DE;strokeColor=#d6b656;movable=1;resizable=1;rotatable=1;deletable=1;editable=1;locked=0;connectable=1;" parent="1" vertex="1">
          <mxGeometry x="740" y="277.5" width="400" height="395" as="geometry" />
        </mxCell>
        <mxCell id="lXj2V7DBIi6SYM75jx1j-25" value="" style="group" parent="1" vertex="1" connectable="0">
          <mxGeometry x="869" y="297.5" width="140" height="60" as="geometry" />
        </mxCell>
        <mxCell id="lXj2V7DBIi6SYM75jx1j-1" value="HAproxy" style="rounded=0;whiteSpace=wrap;html=1;fillColor=#e1d5e7;strokeColor=#9673a6;strokeWidth=1;" parent="lXj2V7DBIi6SYM75jx1j-25" vertex="1">
          <mxGeometry width="140" height="60" as="geometry" />
        </mxCell>
        <mxCell id="lXj2V7DBIi6SYM75jx1j-63" style="edgeStyle=orthogonalEdgeStyle;rounded=0;orthogonalLoop=1;jettySize=auto;html=1;entryX=0.505;entryY=1.004;entryDx=0;entryDy=0;entryPerimeter=0;" parent="1" source="lXj2V7DBIi6SYM75jx1j-52" target="lXj2V7DBIi6SYM75jx1j-46" edge="1">
          <mxGeometry relative="1" as="geometry" />
        </mxCell>
        <mxCell id="lXj2V7DBIi6SYM75jx1j-65" style="edgeStyle=orthogonalEdgeStyle;rounded=0;orthogonalLoop=1;jettySize=auto;html=1;entryX=0.5;entryY=0;entryDx=0;entryDy=0;" parent="1" source="lXj2V7DBIi6SYM75jx1j-1" target="lXj2V7DBIi6SYM75jx1j-46" edge="1">
          <mxGeometry relative="1" as="geometry" />
        </mxCell>
        <mxCell id="lXj2V7DBIi6SYM75jx1j-73" value="" style="group" parent="1" vertex="1" connectable="0">
          <mxGeometry x="750" y="552.5" width="382" height="80" as="geometry" />
        </mxCell>
        <mxCell id="lXj2V7DBIi6SYM75jx1j-52" value="" style="rounded=0;whiteSpace=wrap;html=1;fillColor=#d0cee2;strokeColor=none;" parent="lXj2V7DBIi6SYM75jx1j-73" vertex="1">
          <mxGeometry width="382" height="80" as="geometry" />
        </mxCell>
        <mxCell id="lXj2V7DBIi6SYM75jx1j-59" value="" style="group;fillColor=#dae8fc;strokeColor=#6c8ebf;" parent="lXj2V7DBIi6SYM75jx1j-73" vertex="1" connectable="0">
          <mxGeometry x="13" y="15.5" width="109.5" height="49" as="geometry" />
        </mxCell>
        <mxCell id="lXj2V7DBIi6SYM75jx1j-60" value="Redis Sentinel" style="rounded=0;whiteSpace=wrap;html=1;fillColor=#dae8fc;strokeColor=#6c8ebf;strokeWidth=1;" parent="lXj2V7DBIi6SYM75jx1j-59" vertex="1">
          <mxGeometry width="109.5" height="49" as="geometry" />
        </mxCell>
        <mxCell id="lXj2V7DBIi6SYM75jx1j-67" value="" style="group;fillColor=#dae8fc;strokeColor=#6c8ebf;" parent="lXj2V7DBIi6SYM75jx1j-73" vertex="1" connectable="0">
          <mxGeometry x="141" y="15.5" width="109.5" height="49" as="geometry" />
        </mxCell>
        <mxCell id="lXj2V7DBIi6SYM75jx1j-68" value="Redis Sentinel" style="rounded=0;whiteSpace=wrap;html=1;fillColor=#dae8fc;strokeColor=#6c8ebf;strokeWidth=1;" parent="lXj2V7DBIi6SYM75jx1j-67" vertex="1">
          <mxGeometry width="109.5" height="49" as="geometry" />
        </mxCell>
        <mxCell id="lXj2V7DBIi6SYM75jx1j-70" value="" style="group;fillColor=#f5f5f5;strokeColor=#666666;fontColor=#333333;" parent="lXj2V7DBIi6SYM75jx1j-73" vertex="1" connectable="0">
          <mxGeometry x="262" y="15.5" width="109.5" height="49" as="geometry" />
        </mxCell>
        <mxCell id="lXj2V7DBIi6SYM75jx1j-71" value="Redis Sentinel" style="rounded=0;whiteSpace=wrap;html=1;fillColor=#dae8fc;strokeColor=#6c8ebf;strokeWidth=1;" parent="lXj2V7DBIi6SYM75jx1j-70" vertex="1">
          <mxGeometry width="109.5" height="49" as="geometry" />
        </mxCell>
        <mxCell id="lXj2V7DBIi6SYM75jx1j-74" value="" style="group" parent="1" vertex="1" connectable="0">
          <mxGeometry x="748" y="422.5" width="382" height="100" as="geometry" />
        </mxCell>
        <mxCell id="lXj2V7DBIi6SYM75jx1j-46" value="" style="rounded=0;whiteSpace=wrap;html=1;fillColor=#b4e2b1;strokeColor=none;" parent="lXj2V7DBIi6SYM75jx1j-74" vertex="1">
          <mxGeometry width="382" height="100" as="geometry" />
        </mxCell>
        <mxCell id="lXj2V7DBIi6SYM75jx1j-28" value="" style="group" parent="lXj2V7DBIi6SYM75jx1j-74" vertex="1" connectable="0">
          <mxGeometry x="262" y="21" width="109.5" height="60" as="geometry" />
        </mxCell>
        <mxCell id="lXj2V7DBIi6SYM75jx1j-29" value="Redis (Slave)" style="rounded=0;whiteSpace=wrap;html=1;fillColor=#d5e8d4;strokeColor=#82b366;strokeWidth=1;" parent="lXj2V7DBIi6SYM75jx1j-28" vertex="1">
          <mxGeometry width="109.5" height="60" as="geometry" />
        </mxCell>
        <mxCell id="lXj2V7DBIi6SYM75jx1j-48" value="" style="group" parent="lXj2V7DBIi6SYM75jx1j-74" vertex="1" connectable="0">
          <mxGeometry x="12" y="21" width="109.5" height="60" as="geometry" />
        </mxCell>
        <mxCell id="lXj2V7DBIi6SYM75jx1j-49" value="Redis (Master)" style="rounded=0;whiteSpace=wrap;html=1;fillColor=#d5e8d4;strokeColor=#82b366;strokeWidth=1;" parent="lXj2V7DBIi6SYM75jx1j-48" vertex="1">
          <mxGeometry width="109.5" height="60" as="geometry" />
        </mxCell>
        <mxCell id="lXj2V7DBIi6SYM75jx1j-22" value="Redis (Slave)" style="rounded=0;whiteSpace=wrap;html=1;fillColor=#d5e8d4;strokeColor=#82b366;strokeWidth=1;" parent="lXj2V7DBIi6SYM75jx1j-74" vertex="1">
          <mxGeometry x="138.25" y="21" width="109.5" height="60" as="geometry" />
        </mxCell>
        <mxCell id="lXj2V7DBIi6SYM75jx1j-79" style="edgeStyle=orthogonalEdgeStyle;rounded=0;orthogonalLoop=1;jettySize=auto;html=1;entryX=1;entryY=0.5;entryDx=0;entryDy=0;endArrow=none;endFill=0;dashed=1;" parent="1" source="lXj2V7DBIi6SYM75jx1j-78" target="lXj2V7DBIi6SYM75jx1j-52" edge="1">
          <mxGeometry relative="1" as="geometry" />
        </mxCell>
        <mxCell id="lXj2V7DBIi6SYM75jx1j-78" value="Monitor and promote a redis slave to master in case of a failure" style="shape=note;size=20;whiteSpace=wrap;html=1;align=left;spacing=6;" parent="1" vertex="1">
          <mxGeometry x="1190" y="552.5" width="180" height="80" as="geometry" />
        </mxCell>
        <mxCell id="lXj2V7DBIi6SYM75jx1j-81" style="edgeStyle=orthogonalEdgeStyle;rounded=0;orthogonalLoop=1;jettySize=auto;html=1;endArrow=none;endFill=0;dashed=1;entryX=1;entryY=0.5;entryDx=0;entryDy=0;" parent="1" source="lXj2V7DBIi6SYM75jx1j-80" target="lXj2V7DBIi6SYM75jx1j-1" edge="1">
          <mxGeometry relative="1" as="geometry">
            <mxPoint x="1100" y="342.5" as="targetPoint" />
          </mxGeometry>
        </mxCell>
        <mxCell id="lXj2V7DBIi6SYM75jx1j-80" value="- Exposes 2 ports, read/write&lt;br&gt;- Routes write traffic to master&lt;br&gt;- Distributes read traffic across all nodes" style="shape=note;size=20;whiteSpace=wrap;html=1;align=left;spacing=5;" parent="1" vertex="1">
          <mxGeometry x="990" y="170" width="190" height="80" as="geometry" />
        </mxCell>
        <mxCell id="lXj2V7DBIi6SYM75jx1j-131" style="edgeStyle=orthogonalEdgeStyle;rounded=0;orthogonalLoop=1;jettySize=auto;html=1;entryX=0;entryY=0.5;entryDx=0;entryDy=0;" parent="1" source="lXj2V7DBIi6SYM75jx1j-85" target="lXj2V7DBIi6SYM75jx1j-86" edge="1">
          <mxGeometry relative="1" as="geometry" />
        </mxCell>
        <mxCell id="lXj2V7DBIi6SYM75jx1j-85" value="Internet" style="ellipse;shape=cloud;whiteSpace=wrap;html=1;" parent="1" vertex="1">
          <mxGeometry x="10" y="435" width="120" height="80" as="geometry" />
        </mxCell>
        <mxCell id="lXj2V7DBIi6SYM75jx1j-86" value="" style="image;aspect=fixed;perimeter=ellipsePerimeter;html=1;align=center;shadow=0;dashed=0;spacingTop=3;image=img/lib/active_directory/firewall.svg;" parent="1" vertex="1">
          <mxGeometry x="180" y="445" width="36.6" height="60" as="geometry" />
        </mxCell>
        <mxCell id="lXj2V7DBIi6SYM75jx1j-100" value="" style="group" parent="1" vertex="1" connectable="0">
          <mxGeometry x="500" y="155" width="160" height="100" as="geometry" />
        </mxCell>
        <mxCell id="lXj2V7DBIi6SYM75jx1j-88" value="" style="rounded=0;whiteSpace=wrap;html=1;fillColor=#EFF3FC;strokeColor=none;movable=1;resizable=1;rotatable=1;deletable=1;editable=1;locked=0;connectable=1;fontColor=#333333;" parent="lXj2V7DBIi6SYM75jx1j-100" vertex="1">
          <mxGeometry width="160" height="100" as="geometry" />
        </mxCell>
        <mxCell id="lXj2V7DBIi6SYM75jx1j-91" value="Repo Fetcher Node" style="rounded=0;whiteSpace=wrap;html=1;fillColor=#e1d5e7;strokeColor=#9673a6;strokeWidth=1;" parent="lXj2V7DBIi6SYM75jx1j-100" vertex="1">
          <mxGeometry x="15" y="25" width="130" height="50" as="geometry" />
        </mxCell>
        <mxCell id="lXj2V7DBIi6SYM75jx1j-117" style="edgeStyle=orthogonalEdgeStyle;rounded=0;orthogonalLoop=1;jettySize=auto;html=1;" parent="1" source="lXj2V7DBIi6SYM75jx1j-102" target="lXj2V7DBIi6SYM75jx1j-116" edge="1">
          <mxGeometry relative="1" as="geometry" />
        </mxCell>
        <mxCell id="lXj2V7DBIi6SYM75jx1j-102" value="Loadbalancer" style="rounded=0;whiteSpace=wrap;html=1;fillColor=#f8cecc;strokeColor=#b85450;" parent="1" vertex="1">
          <mxGeometry x="270" y="445" width="120" height="60" as="geometry" />
        </mxCell>
        <mxCell id="lXj2V7DBIi6SYM75jx1j-111" style="edgeStyle=orthogonalEdgeStyle;rounded=0;orthogonalLoop=1;jettySize=auto;html=1;entryX=0;entryY=0.5;entryDx=0;entryDy=0;" parent="1" source="lXj2V7DBIi6SYM75jx1j-86" target="lXj2V7DBIi6SYM75jx1j-102" edge="1">
          <mxGeometry relative="1" as="geometry">
            <mxPoint x="200" y="474.9565217391305" as="sourcePoint" />
          </mxGeometry>
        </mxCell>
        <mxCell id="lXj2V7DBIi6SYM75jx1j-132" style="edgeStyle=orthogonalEdgeStyle;rounded=0;orthogonalLoop=1;jettySize=auto;html=1;entryX=0;entryY=0.5;entryDx=0;entryDy=0;" parent="1" source="lXj2V7DBIi6SYM75jx1j-116" target="lXj2V7DBIi6SYM75jx1j-2" edge="1">
          <mxGeometry relative="1" as="geometry" />
        </mxCell>
        <mxCell id="lXj2V7DBIi6SYM75jx1j-116" value="" style="rounded=0;whiteSpace=wrap;html=1;fillColor=#EFF3FC;strokeColor=none;" parent="1" vertex="1">
          <mxGeometry x="500" y="305" width="160" height="340" as="geometry" />
        </mxCell>
        <mxCell id="lXj2V7DBIi6SYM75jx1j-95" value="API Node 1" style="rounded=0;whiteSpace=wrap;html=1;fillColor=#dae8fc;strokeColor=#6c8ebf;" parent="1" vertex="1">
          <mxGeometry x="520" y="335" width="120" height="60" as="geometry" />
        </mxCell>
        <mxCell id="lXj2V7DBIi6SYM75jx1j-96" value="API Node 2" style="rounded=0;whiteSpace=wrap;html=1;fillColor=#dae8fc;strokeColor=#6c8ebf;" parent="1" vertex="1">
          <mxGeometry x="520" y="415" width="120" height="60" as="geometry" />
        </mxCell>
        <mxCell id="lXj2V7DBIi6SYM75jx1j-97" value="API Node 3" style="rounded=0;whiteSpace=wrap;html=1;fillColor=#dae8fc;strokeColor=#6c8ebf;" parent="1" vertex="1">
          <mxGeometry x="520" y="490" width="120" height="60" as="geometry" />
        </mxCell>
        <mxCell id="lXj2V7DBIi6SYM75jx1j-98" value="API Node 4" style="rounded=0;whiteSpace=wrap;html=1;fillColor=#dae8fc;strokeColor=#6c8ebf;" parent="1" vertex="1">
          <mxGeometry x="520" y="565" width="120" height="60" as="geometry" />
        </mxCell>
        <mxCell id="lXj2V7DBIi6SYM75jx1j-120" style="edgeStyle=orthogonalEdgeStyle;rounded=0;orthogonalLoop=1;jettySize=auto;html=1;entryX=0.5;entryY=0;entryDx=0;entryDy=0;" parent="1" source="lXj2V7DBIi6SYM75jx1j-88" target="lXj2V7DBIi6SYM75jx1j-2" edge="1">
          <mxGeometry relative="1" as="geometry" />
        </mxCell>
        <mxCell id="lXj2V7DBIi6SYM75jx1j-133" style="edgeStyle=orthogonalEdgeStyle;rounded=0;orthogonalLoop=1;jettySize=auto;html=1;entryX=0.5;entryY=0;entryDx=0;entryDy=0;dashed=1;endArrow=none;endFill=0;" parent="1" source="lXj2V7DBIi6SYM75jx1j-121" target="lXj2V7DBIi6SYM75jx1j-91" edge="1">
          <mxGeometry relative="1" as="geometry" />
        </mxCell>
        <mxCell id="lXj2V7DBIi6SYM75jx1j-121" value="Pulls Github data periodically and writes it to redis cache" style="shape=note;size=20;whiteSpace=wrap;html=1;align=center;spacing=5;" parent="1" vertex="1">
          <mxGeometry x="270" y="90" width="155" height="80" as="geometry" />
        </mxCell>
        <mxCell id="lXj2V7DBIi6SYM75jx1j-134" style="edgeStyle=orthogonalEdgeStyle;rounded=0;orthogonalLoop=1;jettySize=auto;html=1;dashed=1;endArrow=none;endFill=0;" parent="1" source="lXj2V7DBIi6SYM75jx1j-123" target="lXj2V7DBIi6SYM75jx1j-95" edge="1">
          <mxGeometry relative="1" as="geometry" />
        </mxCell>
        <mxCell id="lXj2V7DBIi6SYM75jx1j-123" value="Exposes a Rest API to access repos and stats" style="shape=note;size=20;whiteSpace=wrap;html=1;align=center;spacing=5;" parent="1" vertex="1">
          <mxGeometry x="270" y="265" width="155" height="80" as="geometry" />
        </mxCell>
        <mxCell id="M96GGaUijDs4fz3wK48h-1" value="&lt;p style=&quot;line-height: 150%;&quot;&gt;High availability for the reverse proxy (LoadBalancer), RepoFetcher Node and Haproxy should be ensured by an orchestrator.&lt;br&gt;Otherwise we would need to manage failover manually: duplicate each node and setting up a VIP using KeepAlived.&lt;/p&gt;" style="shape=note;whiteSpace=wrap;html=1;backgroundOutline=1;darkOpacity=0.05;align=left;labelPosition=center;verticalLabelPosition=middle;verticalAlign=top;spacing=0;spacingLeft=5;spacingRight=22;" vertex="1" parent="1">
          <mxGeometry x="40" y="680" width="400" height="100" as="geometry" />
        </mxCell>
      </root>
    </mxGraphModel>
  </diagram>
</mxfile>
